<?xml version="1.0" encoding="utf-8"?>
<!-- Generator: Adobe Illustrator 26.5.0, SVG Export Plug-In . SVG Version: 6.00 Build 0)  -->
<svg version="1.1" id="_x31_30531663" xmlns="http://www.w3.org/2000/svg" xmlns:xlink="http://www.w3.org/1999/xlink" x="0px"
	 y="0px" viewBox="0 0 312.5 310.8" style="enable-background:new 0 0 312.5 310.8;" xml:space="preserve">
<style type="text/css">
	.st0{fill:url(#SVGID_1_);}
</style>
<g id="SvgjsG4210" transform="matrix(3.1218784074090955,0,0,3.1218784074090955,-0.000019352159164580462,0.06530460541469078)">
	
		<linearGradient id="SVGID_1_" gradientUnits="userSpaceOnUse" x1="9.5789" y1="72.6171" x2="10.5789" y2="72.6171" gradientTransform="matrix(312.5 0 0 -310.7574 -2993.3923 22616.0605)">
		<stop  offset="0" style="stop-color:#8F5E25"/>
		<stop  offset="0.5" style="stop-color:#FBF4A1"/>
		<stop  offset="1" style="stop-color:#8F5E25"/>
	</linearGradient>
	<path class="st0" d="M100.1,49.8c0,1.7-1.4,3.4-1.6,5.1s0.9,3.6,0.5,5.3s-2.1,3-2.6,4.6s0.1,3.7-0.6,5.3s-2.7,2.5-3.6,4
		s-0.7,3.7-1.7,5.1s-3.2,1.9-4.3,3.2s-1.4,3.5-2.7,4.6s-3.5,1.2-4.9,2.2s-2.1,3.1-3.6,4c-1.5,0.9-3.6,0.4-5.2,1.1
		c-1.6,0.7-2.7,2.6-4.3,3.1s-3.6-0.3-5.3,0s-3.2,2-4.9,2.1s-3.5-1.1-5.2-1.1s-3.5,1.3-5.2,1.1s-3.2-1.8-4.9-2.1s-3.7,0.5-5.3,0
		s-2.8-2.4-4.3-3.1c-1.5-0.7-3.9-0.3-5.4-1.2c-1.5-0.9-2.2-2.9-3.6-4s-3.6-1-4.9-2.2s-1.5-3.3-2.7-4.6s-3.3-1.8-4.3-3.2
		S8.7,75.5,7.8,74s-2.9-2.4-3.6-4s0-3.7-0.6-5.3S1.3,61.8,1,60.1s0.7-3.6,0.5-5.3S0,51.5,0,49.8s1.4-3.4,1.6-5.1S0.7,41,1.1,39.4
		s2.1-3,2.6-4.6s-0.1-3.7,0.6-5.3s2.7-2.5,3.6-4c0.9-1.5,0.7-3.7,1.7-5.1s3.2-1.9,4.3-3.2s1.4-3.5,2.7-4.6s3.5-1.2,4.9-2.2
		s2.1-3.1,3.6-4c1.5-0.9,3.6-0.4,5.2-1.1s2.7-2.6,4.3-3.1s3.6,0.3,5.3,0s3.2-2,4.9-2.2s3.5,1.1,5.2,1.1s3.6-1.3,5.3-1.1
		s3.2,1.8,4.9,2.1s3.7-0.5,5.3,0s2.8,2.4,4.3,3.1s3.7,0.3,5.2,1.1s2.2,2.9,3.6,4s3.6,1,4.9,2.2s1.5,3.3,2.7,4.6s3.3,1.8,4.3,3.2
		s0.8,3.6,1.7,5.1c0.9,1.5,2.9,2.4,3.6,4s0,3.7,0.6,5.3s2.3,2.9,2.6,4.6s-0.7,3.6-0.5,5.3S100.1,48,100.1,49.8L100.1,49.8z"/>
</g>
<g id="SvgjsG4211" transform="matrix(3.221638531975583,0,0,3.221638531975583,117.57474376408967,79.69072298627893)">
	<g>
		<path d="M5.5,20.1c-0.8,0-1.5,0.7-1.5,1.5c0,0.8,0.7,1.5,1.5,1.5S7,22.4,7,21.6C7,20.8,6.4,20.1,5.5,20.1z M5.5,22.1
			c-0.3,0-0.5-0.2-0.5-0.5c0-0.3,0.2-0.5,0.5-0.5c0.3,0,0.5,0.2,0.5,0.5C6,21.9,5.8,22.1,5.5,22.1z"/>
		<path d="M25.5,19v-5.7c0-1.4-1.1-2.5-2.5-2.5h-7.7c0,0,0,0-0.1,0c-0.7-0.4-1.4-0.8-2-1.2c1.4-0.8,4.3-2.5,5.2-3c1-0.6,2-1.1,3-1.7
			c1-0.6,2.1-1.2,3.1-1.8c0.6-0.3,1.2-0.6,1.7-1c0.7-0.5,0.9-1.2,0.7-2c-0.2-0.8-0.7-1.3-1.5-1.5c-0.3-0.1-0.5-0.1-0.8-0.1
			c0,0,0,0,0,0c-0.1,0-0.1,0-0.2,0c-3.3,0-11.9,0-15.2,0C9-1.6,9-1.6,9-1.8C9-2,9-2.2,9-2.4c0-0.1,0-0.2-0.2-0.2c-0.5,0-2.2,0-2.8,0
			c0-0.8,0-1.5,0-2.3C6-5,6-5.1,5.8-5.1c-2.8,0-5.7,0-8.5,0C-3-5.1-3-5.1-3-4.8c0,1.6,0,3.2,0,4.8c0,1.6,0,3.2,0,4.8
			c0,0.2,0.1,0.2,0.2,0.2c2.9,0,5.7,0,8.6,0C6,4.9,6,4.8,6,4.7c0-0.4,0-0.9,0-1.3l2.8,0C9,3.4,9,3.4,9,3.2c0-0.4,0-0.7,0-1.1
			C9,1.9,9,1.9,9.2,1.9c1.4,0,6,0,8.7,0c-0.7,0.4-1.5,0.8-2.2,1.3c-1,0.6-2.1,1.2-3.1,1.8c-0.4,0.2-2.8,1.6-3.7,2.1
			c-0.7-0.3-1.4-0.2-2,0.1C6.1,7.6,5.7,8.2,5.6,9c0,0.1,0,0.3,0,0.4c0,1,0.5,1.7,1.3,2.2c0.6,0.4,1.3,0.7,1.9,1.1l-1.6,1
			C6.5,14.2,6,15,6,15.8v2.5c-0.2,0-0.3-0.1-0.5-0.1c-1.8,0-3.3,1.5-3.3,3.3c0,1.8,1.5,3.3,3.3,3.3c1,0,2-0.5,2.6-1.3h12.8
			c0.6,0.8,1.5,1.3,2.6,1.3c1.8,0,3.3-1.5,3.3-3.3C26.8,20.5,26.3,19.6,25.5,19z M5,3.8c0,0.1,0,0.1-0.1,0.1c-0.2,0-4.6,0-6.6,0
			C-2,3.9-2,3.9-2,3.7c0-1.6,0-7,0-7.5c0-0.2,0-0.2,0.2-0.2c2.2,0,4.4,0,6.6,0C5-4.1,5-4,5-3.9C5-1.7,5,3.7,5,3.8z M8,0.9v1.3
			C8,2.4,8,2.4,7.9,2.4c0,0-1.5,0-1.8,0c0-1.3,0-2.7,0-4c0.4,0,1.6,0,1.8,0C8-1.6,8-1.6,8-1.4C8-1.2,8-1,8-0.8c0,0.2,0,0.2,0.2,0.2
			c1.8,0,12.1,0,14,0c-0.9,0.5-1.8,1-2.6,1.5L8,0.9z M14.9,4.7c1.5-0.8,2.9-1.7,4.4-2.5c1-0.6,2-1.1,3-1.7c0.5-0.3,1-0.6,1.5-0.9
			c0.5-0.3,1.1-0.3,1.7-0.1c0.6,0.3,0.6,1.1,0.2,1.6c-0.2,0.2-0.5,0.3-0.8,0.5c-0.8,0.5-1.6,0.9-2.5,1.4c-0.9,0.5-1.9,1.1-2.8,1.6
			c-1,0.6-2.1,1.2-3.1,1.8c-0.6,0.3-3.6,2.1-4.3,2.5c-0.5-0.3-1.1-0.6-1.6-0.9c-0.2-0.1-0.4-0.2-0.6-0.4C11.4,6.8,14.1,5.3,14.9,4.7
			z M7.2,10.7c-0.5-0.3-0.8-0.8-0.7-1.5c0.1-0.6,0.4-1,1-1.2c0.6-0.2,1,0,1.5,0.3c1,0.6,2.1,1.2,3.1,1.8c0.4,0.2,0.8,0.4,1.2,0.7
			h-1.3c-0.1,0-0.2,0-0.3,0.1l-2,1.3C9.6,12,9.5,12,9.4,11.9C8.7,11.5,7.9,11.1,7.2,10.7z M7,15.8C7,15.8,7,15.8,7,15.8l2.5-0.1
			c0.3,0,0.5-0.2,0.5-0.5s-0.2-0.5-0.5-0.5h-2c0.1-0.1,0.1-0.1,0.2-0.1l4.4-2.8H23c0.6,0,1.2,0.4,1.4,1H17c-0.3,0-0.5,0.2-0.5,0.5
			c0,0.3,0.2,0.5,0.5,0.5h7.5v1H17c-0.3,0-0.5,0.2-0.5,0.5c0,0.3,0.2,0.5,0.5,0.5h7.5v1H7V15.8z M14.1,17.7h1.2l2.6,3h-1.2
			L14.1,17.7z M15.3,20.7h-1.2l-2.6-3h1.2L15.3,20.7z M5.5,24.1C4.2,24.1,3,23,3,21.6c0-1.4,1.1-2.5,2.5-2.5S8,20.2,8,21.6
			C8,23,6.9,24.1,5.5,24.1z M7,18.7v-1h3.1l2.6,3h-4C8.5,19.8,7.9,19.1,7,18.7z M8.7,22.7c0.1-0.3,0.2-0.6,0.2-1h5c0,0,0,0,0,0
			c0,0,0,0,0,0h2.5c0,0,0,0,0,0c0,0,0,0,0,0h3.7c0,0.3,0.1,0.7,0.2,1H8.7z M20.3,20.7h-1l-2.6-3h7.8v0.7c-0.3-0.1-0.6-0.2-1-0.2
			C22,18.3,20.7,19.3,20.3,20.7z M23.5,24.1c-1.4,0-2.5-1.1-2.5-2.5c0-1.4,1.1-2.5,2.5-2.5c1.4,0,2.5,1.1,2.5,2.5
			C26,23,24.9,24.1,23.5,24.1z"/>
		<path d="M23.5,20.1c-0.8,0-1.5,0.7-1.5,1.5c0,0.8,0.7,1.5,1.5,1.5c0.8,0,1.5-0.7,1.5-1.5C25,20.8,24.3,20.1,23.5,20.1z M23.5,22.1
			c-0.3,0-0.5-0.2-0.5-0.5c0-0.3,0.2-0.5,0.5-0.5c0.3,0,0.5,0.2,0.5,0.5C24,21.9,23.8,22.1,23.5,22.1z"/>
		<path d="M1-2.9C1-3,1-3.1,0.9-3.1c-0.2,0-0.4,0-0.7,0C0.1-3.1,0-3,0-2.9c0,0.7,0,4.2,0,4.7c0,0.2,0,0.2-0.2,0.2
			c-0.4,0-0.3,0-0.3,0.3c0,0.2,0,0.3,0,0.5c0,0.1,0,0.1,0.1,0.1c0.4,0,0.8,0,1.2,0C1,2.9,1,2.9,1,2.8c0-0.5,0-4,0-4.4
			C1-2.1,1-2.5,1-2.9z"/>
		<path d="M3.5-2.9c0-0.1,0-0.2-0.2-0.2c-0.2,0-0.4,0-0.7,0c-0.1,0-0.1,0-0.1,0.1c0,0.7,0,4.2,0,4.7c0,0.2,0,0.2-0.2,0.2
			C2,1.9,2,1.9,2,2.3c0,0.2,0,0.3,0,0.5c0,0.1,0,0.1,0.1,0.1c0.4,0,0.8,0,1.2,0c0.1,0,0.1,0,0.1-0.1c0-0.5,0-4,0-4.4
			C3.5-2.1,3.5-2.5,3.5-2.9z"/>
		<path d="M8,8.9c-0.3,0-0.5,0.2-0.5,0.5S7.7,9.9,8,9.9c0.3,0,0.5-0.2,0.5-0.5S8.3,8.9,8,8.9z"/>
	</g>
</g>
<g id="SvgjsG4212" transform="matrix(0.7882208514579668,0,0,0.7882208514579668,56.000000187926496,168.10887126114977)">
	<path d="M9.3,33.4l0.2-22.2h3.8L13,40.2h-6L3.8,17.8v22.4H0V11.3h6.2L9.3,33.4z M26.1,24.9h-5.5v11.3h5.6V40h-9.4V11.4h9.4v3.8
		h-5.6v5.9h5.5V24.9z M45.4,11.4h3.8L45.5,40h-4l-2-14.3L37.6,40h-4l-4-28.6h3.8l2.1,14.7l1.9-14.7h3.8l2.1,14.7L45.4,11.4z
		 M77.9,11.4h3.8L78,40h-4l-2-14.3L70.2,40h-4l-4-28.6h3.8l2.1,14.7l1.9-14.7h3.8L76,26.2L77.9,11.4z M90.7,40c-3,0-5.4-2.4-5.4-5.4
		v-18c0-3,2.4-5.4,5.4-5.4c3,0,5.4,2.4,5.4,5.4v18C96,37.6,93.6,40,90.7,40z M90.7,15.1c-0.9,0-1.6,0.7-1.6,1.6v18
		c0,0.9,0.7,1.6,1.6,1.6c0.8,0,1.6-0.7,1.6-1.6v-18C92.2,15.8,91.5,15.1,90.7,15.1z M110.5,40.1h-4.1l-2.2-6h-0.9v6h-3.8V11.4h6
		c2.6,0,4.8,2.1,4.8,4.8v13.1c0,1.7-0.9,3.2-2.2,4L110.5,40.1z M103.4,15.2v15h2.2c0.5,0,1-0.4,1-1V16.2c0-0.5-0.4-1-1-1
		C105.5,15.2,103.4,15.2,103.4,15.2z M117.8,36.2h5.5V40H114V11.3h3.8C117.8,11.3,117.8,36.2,117.8,36.2z M131.8,40h-5V11.5h5
		c3.4,0,6.1,2.8,6.1,6.2v16.2c0,1.6-0.6,3.2-1.8,4.4S133.5,40,131.8,40L131.8,40z M130.6,15.4v20.8h1.2c0.6,0,1.2-0.2,1.6-0.7
		s0.7-1,0.7-1.6V17.7c0-1.3-1-2.3-2.3-2.3L130.6,15.4L130.6,15.4z M164.8,11.4v3.8h-4.8V40h-3.8V15.2H151v-3.8
		C151,11.4,164.8,11.4,164.8,11.4z M177.7,24.9h-5.5v11.3h5.6V40h-9.4V11.4h9.4v3.8h-5.6v5.9h5.5V24.9z M185,36.2h5.5V40h-9.3V11.3
		h3.8C185,11.3,185,36.2,185,36.2z M203.4,24.9h-5.5v11.3h5.6V40h-9.4V11.4h9.4v3.8h-5.6v5.9h5.5V24.9z M212.3,39.9
		c-3,0-5.4-2.4-5.4-5.4V16.8c0-3,2.4-5.4,5.4-5.4s5.4,2.4,5.4,5.4v1.6h-3.8v-1.6c0-0.8-0.7-1.6-1.6-1.6s-1.6,0.7-1.6,1.6v17.8
		c0,0.8,0.7,1.6,1.6,1.6s1.6-0.7,1.6-1.6V32h3.8v2.6C217.7,37.5,215.3,39.9,212.3,39.9z M226.6,40c-3,0-5.4-2.4-5.4-5.4v-18
		c0-3,2.4-5.4,5.4-5.4c3,0,5.4,2.4,5.4,5.4v18C231.9,37.6,229.5,40,226.6,40z M226.6,15.1c-0.9,0-1.6,0.7-1.6,1.6v18
		c0,0.9,0.7,1.6,1.6,1.6c0.8,0,1.6-0.7,1.6-1.6v-18C228.1,15.8,227.4,15.1,226.6,15.1z M247.1,11.4h6.7v28.6H250V17.3L246.4,40h-1.5
		l-0.4-0.1l-0.3,0.1h-1.5l-3.5-22.7v22.6h-3.8V11.4h6.7l2.4,16.2L247.1,11.4z"/>
</g>
<g id="SvgjsG4213" transform="matrix(1.3787749943391578,0,0,1.3787749943391578,79.00000016436279,202.47188979321442)">
	<path d="M4.7,10.6v1.9H1.9V20H0V5.7h4.7v1.9H1.9v3C1.9,10.6,4.7,10.6,4.7,10.6z M9.6,5.7v14.2H7.7V5.7C7.7,5.7,9.6,5.7,9.6,5.7z
		 M17.3,11.5c0.4,0.4,0.7,1,0.7,1.7v4.4c0,1.3-1.1,2.4-2.4,2.4h-3l0-14.2h2.6c1.5,0.1,2.3,1.5,2.3,2.8l0,2
		C17.6,10.9,17.5,11.2,17.3,11.5z M15.6,18.1c0.3,0,0.5-0.2,0.5-0.5l0-4.4c0-0.3-0.2-0.5-0.5-0.5h-1.1v5.3
		C14.6,18.1,15.6,18.1,15.6,18.1z M14.6,7.7v3.2h0.8c0.2,0,0.3-0.1,0.3-0.3l0-2c0-0.4-0.2-0.8-0.5-0.9C15.2,7.7,14.6,7.7,14.6,7.7z
		 M25.7,12.5H23v5.6h2.8V20h-4.7V5.7h4.7v1.9H23v2.9h2.8V12.5z M34.3,20h-2l-1.1-3h-0.4v3h-1.9V5.7h3c1.3,0,2.4,1.1,2.4,2.4v6.5
		c0,0.9-0.4,1.6-1.1,2L34.3,20z M30.7,7.6v7.5h1.1c0.3,0,0.5-0.2,0.5-0.5V8.1c0-0.3-0.2-0.5-0.5-0.5C31.8,7.6,30.7,7.6,30.7,7.6z
		 M46.3,20.2h-0.4c-1.4,0-2.5-1.1-2.5-2.5V8c0-1.4,1.1-2.5,2.5-2.5h0.4c1.4,0,2.5,1.1,2.5,2.5v1h-2V8c0-0.3-0.2-0.6-0.6-0.6h-0.4
		c-0.3,0-0.6,0.2-0.6,0.6v9.6c0,0.3,0.3,0.6,0.6,0.6h0.4c0.3,0,0.6-0.3,0.6-0.6v-5.2h-1.1v-1.9h3.1v7.1C48.8,19,47.7,20.2,46.3,20.2
		z M57.3,20h-2l-1.1-3h-0.4v3h-1.9V5.7h3c1.3,0,2.4,1.1,2.4,2.4v6.5c0,0.9-0.4,1.6-1.1,2L57.3,20z M53.7,7.6v7.5h1.1
		c0.3,0,0.5-0.2,0.5-0.5V8.1c0-0.3-0.2-0.5-0.5-0.5C54.8,7.6,53.7,7.6,53.7,7.6z M63,20c-1.5,0-2.7-1.2-2.7-2.7v-9
		c0-1.5,1.2-2.7,2.7-2.7c1.5,0,2.7,1.2,2.7,2.7v9C65.7,18.8,64.5,20,63,20z M63,7.6c-0.4,0-0.8,0.4-0.8,0.8v9c0,0.4,0.3,0.8,0.8,0.8
		c0.4,0,0.8-0.3,0.8-0.8v-9C63.8,7.9,63.4,7.6,63,7.6z M71.7,20c-1.6,0-2.9-1.3-2.9-2.9V5.7h1.9v11.4c0,0.6,0.5,1.1,1,1.1
		s1-0.5,1-1.1V5.7h1.9v11.4C74.6,18.7,73.3,20,71.7,20z M79.5,17v3h-1.9V5.7h3c1.3,0,2.4,1.1,2.4,2.4v6.5c0,1.3-1.1,2.4-2.4,2.4
		H79.5z M79.5,7.6v7.5h1.1c0.3,0,0.5-0.2,0.5-0.5V8.1c0-0.3-0.2-0.5-0.5-0.5C80.6,7.6,79.5,7.6,79.5,7.6z M93.9,5.7v14.2H92V5.7
		C92,5.7,93.9,5.7,93.9,5.7z M101.6,16.7l0.1-11.1h1.9l-0.1,14.4h-3L98.9,8.9v11.2H97V5.6h3.1L101.6,16.7z M109.3,20
		c-1.5,0-2.7-1.2-2.7-2.7V8.4c0-1.5,1.2-2.7,2.7-2.7s2.7,1.2,2.7,2.7v0.8h-1.9V8.4c0-0.4-0.4-0.8-0.8-0.8s-0.8,0.4-0.8,0.8v8.9
		c0,0.4,0.4,0.8,0.8,0.8s0.8-0.4,0.8-0.8V16h1.9v1.3C112,18.8,110.8,20,109.3,20z"/>
</g>
</svg>
